<mxfile host="app.diagrams.net" agent="Mozilla/5.0 (Windows NT 10.0; Win64; x64) AppleWebKit/537.36 (KHTML, like Gecko) Chrome/131.0.0.0 Safari/537.36" version="24.8.9">
  <diagram name="Page-1" id="eMTUVogZNUgzab4YvwwM">
    <mxGraphModel dx="2049" dy="1237" grid="1" gridSize="10" guides="1" tooltips="1" connect="1" arrows="1" fold="1" page="1" pageScale="1" pageWidth="827" pageHeight="1169" math="0" shadow="0">
      <root>
        <mxCell id="0" />
        <mxCell id="1" parent="0" />
        <mxCell id="uRf5XBfYrNCxBa0gsQwk-6" value="" style="edgeStyle=orthogonalEdgeStyle;rounded=0;orthogonalLoop=1;jettySize=auto;html=1;" edge="1" parent="1" source="uRf5XBfYrNCxBa0gsQwk-1" target="uRf5XBfYrNCxBa0gsQwk-5">
          <mxGeometry relative="1" as="geometry" />
        </mxCell>
        <mxCell id="uRf5XBfYrNCxBa0gsQwk-1" value="&lt;div style=&quot;font-family: Consolas, &amp;quot;Courier New&amp;quot;, monospace; font-size: 14px; line-height: 19px; white-space: pre;&quot;&gt;&lt;span style=&quot;background-color: rgb(255, 255, 255);&quot;&gt;&lt;b&gt;User clicks &#39;Play vs AI&#39;&lt;/b&gt;&lt;/span&gt;&lt;/div&gt;" style="strokeWidth=2;html=1;shape=mxgraph.flowchart.start_2;whiteSpace=wrap;" vertex="1" parent="1">
          <mxGeometry x="144" y="30" width="250" height="60" as="geometry" />
        </mxCell>
        <mxCell id="uRf5XBfYrNCxBa0gsQwk-8" style="edgeStyle=orthogonalEdgeStyle;rounded=0;orthogonalLoop=1;jettySize=auto;html=1;exitX=0.5;exitY=1;exitDx=0;exitDy=0;entryX=0.5;entryY=0;entryDx=0;entryDy=0;" edge="1" parent="1" source="uRf5XBfYrNCxBa0gsQwk-5" target="uRf5XBfYrNCxBa0gsQwk-7">
          <mxGeometry relative="1" as="geometry" />
        </mxCell>
        <mxCell id="uRf5XBfYrNCxBa0gsQwk-5" value="&lt;b style=&quot;font-family: Consolas, &amp;quot;Courier New&amp;quot;, monospace; font-size: 14px; white-space: pre;&quot;&gt;MainMenu: Loads GameScene&lt;/b&gt;" style="whiteSpace=wrap;html=1;strokeWidth=2;" vertex="1" parent="1">
          <mxGeometry x="144" y="110" width="250" height="40" as="geometry" />
        </mxCell>
        <mxCell id="uRf5XBfYrNCxBa0gsQwk-15" style="edgeStyle=orthogonalEdgeStyle;rounded=0;orthogonalLoop=1;jettySize=auto;html=1;exitX=0.5;exitY=1;exitDx=0;exitDy=0;entryX=0.5;entryY=0;entryDx=0;entryDy=0;" edge="1" parent="1" source="uRf5XBfYrNCxBa0gsQwk-7" target="uRf5XBfYrNCxBa0gsQwk-13">
          <mxGeometry relative="1" as="geometry" />
        </mxCell>
        <mxCell id="uRf5XBfYrNCxBa0gsQwk-7" value="&lt;b style=&quot;font-family: Consolas, &amp;quot;Courier New&amp;quot;, monospace; font-size: 14px; white-space: pre;&quot;&gt;GameManager: StartAIGame&lt;/b&gt;" style="whiteSpace=wrap;html=1;strokeWidth=2;" vertex="1" parent="1">
          <mxGeometry x="144" y="170" width="250" height="40" as="geometry" />
        </mxCell>
        <mxCell id="uRf5XBfYrNCxBa0gsQwk-16" style="edgeStyle=orthogonalEdgeStyle;rounded=0;orthogonalLoop=1;jettySize=auto;html=1;exitX=0.5;exitY=1;exitDx=0;exitDy=0;entryX=0.5;entryY=0;entryDx=0;entryDy=0;" edge="1" parent="1" source="uRf5XBfYrNCxBa0gsQwk-13" target="uRf5XBfYrNCxBa0gsQwk-14">
          <mxGeometry relative="1" as="geometry" />
        </mxCell>
        <mxCell id="uRf5XBfYrNCxBa0gsQwk-13" value="&lt;b style=&quot;font-family: Consolas, &amp;quot;Courier New&amp;quot;, monospace; font-size: 14px; white-space: pre;&quot;&gt;GameManager: Creates Human&lt;br/&gt;and AIPlayer&lt;/b&gt;" style="whiteSpace=wrap;html=1;strokeWidth=2;" vertex="1" parent="1">
          <mxGeometry x="144" y="230" width="250" height="40" as="geometry" />
        </mxCell>
        <mxCell id="uRf5XBfYrNCxBa0gsQwk-22" style="edgeStyle=orthogonalEdgeStyle;rounded=0;orthogonalLoop=1;jettySize=auto;html=1;" edge="1" parent="1" source="uRf5XBfYrNCxBa0gsQwk-14" target="uRf5XBfYrNCxBa0gsQwk-21">
          <mxGeometry relative="1" as="geometry" />
        </mxCell>
        <mxCell id="uRf5XBfYrNCxBa0gsQwk-14" value="&lt;font face=&quot;Consolas, Courier New, monospace&quot;&gt;&lt;span style=&quot;font-size: 14px; white-space: pre;&quot;&gt;&lt;b&gt;BoardManager: CreateNewGame&lt;/b&gt;&lt;/span&gt;&lt;/font&gt;" style="whiteSpace=wrap;html=1;strokeWidth=2;" vertex="1" parent="1">
          <mxGeometry x="144" y="290" width="250" height="40" as="geometry" />
        </mxCell>
        <mxCell id="uRf5XBfYrNCxBa0gsQwk-20" style="edgeStyle=orthogonalEdgeStyle;rounded=0;orthogonalLoop=1;jettySize=auto;html=1;exitX=0.5;exitY=1;exitDx=0;exitDy=0;entryX=0.5;entryY=0;entryDx=0;entryDy=0;" edge="1" parent="1" source="uRf5XBfYrNCxBa0gsQwk-17" target="uRf5XBfYrNCxBa0gsQwk-18">
          <mxGeometry relative="1" as="geometry" />
        </mxCell>
        <mxCell id="uRf5XBfYrNCxBa0gsQwk-17" value="&lt;b style=&quot;font-family: Consolas, &amp;quot;Courier New&amp;quot;, monospace; font-size: 14px; white-space: pre;&quot;&gt;StoneManager: SpawnStartStones&lt;/b&gt;" style="whiteSpace=wrap;html=1;strokeWidth=2;" vertex="1" parent="1">
          <mxGeometry x="564" y="430" width="250" height="40" as="geometry" />
        </mxCell>
        <mxCell id="uRf5XBfYrNCxBa0gsQwk-18" value="&lt;font face=&quot;Consolas, Courier New, monospace&quot;&gt;&lt;span style=&quot;font-size: 14px; white-space: pre;&quot;&gt;&lt;b&gt;PitNumberDisplayManager:&lt;br/&gt;Updates initial displays&lt;/b&gt;&lt;/span&gt;&lt;/font&gt;" style="whiteSpace=wrap;html=1;strokeWidth=2;" vertex="1" parent="1">
          <mxGeometry x="564" y="500" width="250" height="40" as="geometry" />
        </mxCell>
        <mxCell id="uRf5XBfYrNCxBa0gsQwk-21" value="&lt;b&gt;Starter player and side decided&lt;/b&gt;" style="rhombus;whiteSpace=wrap;html=1;strokeWidth=2;" vertex="1" parent="1">
          <mxGeometry x="144" y="350" width="250" height="80" as="geometry" />
        </mxCell>
        <mxCell id="uRf5XBfYrNCxBa0gsQwk-29" value="" style="endArrow=classic;html=1;rounded=0;exitX=0;exitY=1;exitDx=0;exitDy=0;entryX=0.5;entryY=0;entryDx=0;entryDy=0;" edge="1" parent="1" source="uRf5XBfYrNCxBa0gsQwk-21" target="uRf5XBfYrNCxBa0gsQwk-40">
          <mxGeometry width="50" height="50" relative="1" as="geometry">
            <mxPoint x="174" y="470" as="sourcePoint" />
            <mxPoint x="224" y="420" as="targetPoint" />
          </mxGeometry>
        </mxCell>
        <mxCell id="uRf5XBfYrNCxBa0gsQwk-38" value="HumanPlayer first" style="edgeLabel;html=1;align=center;verticalAlign=middle;resizable=0;points=[];" vertex="1" connectable="0" parent="uRf5XBfYrNCxBa0gsQwk-29">
          <mxGeometry x="-0.1567" y="-1" relative="1" as="geometry">
            <mxPoint x="1" as="offset" />
          </mxGeometry>
        </mxCell>
        <mxCell id="uRf5XBfYrNCxBa0gsQwk-30" value="" style="endArrow=classic;html=1;rounded=0;exitX=1;exitY=1;exitDx=0;exitDy=0;entryX=0.5;entryY=0;entryDx=0;entryDy=0;" edge="1" parent="1" source="uRf5XBfYrNCxBa0gsQwk-21" target="uRf5XBfYrNCxBa0gsQwk-41">
          <mxGeometry width="50" height="50" relative="1" as="geometry">
            <mxPoint x="279" y="440" as="sourcePoint" />
            <mxPoint x="149" y="490" as="targetPoint" />
          </mxGeometry>
        </mxCell>
        <mxCell id="uRf5XBfYrNCxBa0gsQwk-39" value="AIPlayer first" style="edgeLabel;html=1;align=center;verticalAlign=middle;resizable=0;points=[];" vertex="1" connectable="0" parent="uRf5XBfYrNCxBa0gsQwk-30">
          <mxGeometry x="-0.0499" y="2" relative="1" as="geometry">
            <mxPoint as="offset" />
          </mxGeometry>
        </mxCell>
        <mxCell id="uRf5XBfYrNCxBa0gsQwk-33" value="&lt;b style=&quot;font-family: Consolas, &amp;quot;Courier New&amp;quot;, monospace; font-size: 14px; white-space: pre;&quot;&gt;PitActionTrigger: Waits &lt;/b&gt;&lt;b style=&quot;background-color: initial; font-family: Consolas, &amp;quot;Courier New&amp;quot;, monospace; font-size: 14px; white-space: pre;&quot;&gt;for&lt;/b&gt;&lt;div&gt;&lt;b style=&quot;background-color: initial; font-family: Consolas, &amp;quot;Courier New&amp;quot;, monospace; font-size: 14px; white-space: pre;&quot;&gt;pit clik&lt;/b&gt;&lt;/div&gt;" style="whiteSpace=wrap;html=1;strokeWidth=2;" vertex="1" parent="1">
          <mxGeometry x="14" y="680" width="250" height="40" as="geometry" />
        </mxCell>
        <mxCell id="uRf5XBfYrNCxBa0gsQwk-37" value="&lt;b style=&quot;font-family: Consolas, &amp;quot;Courier New&amp;quot;, monospace; font-size: 14px; white-space: pre;&quot;&gt;BoardManager: Validates move&lt;/b&gt;" style="rhombus;whiteSpace=wrap;html=1;strokeWidth=2;" vertex="1" parent="1">
          <mxGeometry x="144" y="930" width="250" height="80" as="geometry" />
        </mxCell>
        <mxCell id="uRf5XBfYrNCxBa0gsQwk-40" value="&lt;font face=&quot;Consolas, Courier New, monospace&quot;&gt;&lt;span style=&quot;font-size: 14px; white-space: pre;&quot;&gt;&lt;b&gt;BoardManager:&lt;/b&gt;&lt;/span&gt;&lt;/font&gt;&lt;div&gt;&lt;font face=&quot;Consolas, Courier New, monospace&quot;&gt;&lt;span style=&quot;font-size: 14px; white-space: pre;&quot;&gt;&lt;b&gt;CurrentPlayer = HumanPlayer&lt;/b&gt;&lt;/span&gt;&lt;/font&gt;&lt;/div&gt;" style="whiteSpace=wrap;html=1;strokeWidth=2;" vertex="1" parent="1">
          <mxGeometry x="14" y="470" width="250" height="40" as="geometry" />
        </mxCell>
        <mxCell id="uRf5XBfYrNCxBa0gsQwk-41" value="&lt;font face=&quot;Consolas, Courier New, monospace&quot;&gt;&lt;span style=&quot;font-size: 14px; white-space: pre;&quot;&gt;&lt;b&gt;BoardManager:&lt;/b&gt;&lt;/span&gt;&lt;/font&gt;&lt;div&gt;&lt;font face=&quot;Consolas, Courier New, monospace&quot;&gt;&lt;span style=&quot;font-size: 14px; white-space: pre;&quot;&gt;&lt;b&gt;CurrentPlayer = AIPlayer&lt;/b&gt;&lt;/span&gt;&lt;/font&gt;&lt;/div&gt;" style="whiteSpace=wrap;html=1;strokeWidth=2;" vertex="1" parent="1">
          <mxGeometry x="274" y="470" width="250" height="40" as="geometry" />
        </mxCell>
        <mxCell id="uRf5XBfYrNCxBa0gsQwk-44" value="&lt;b&gt;BoardManager: RequestMove&lt;/b&gt;&lt;div&gt;&lt;b&gt;from current palyer&lt;/b&gt;&lt;/div&gt;" style="rhombus;whiteSpace=wrap;html=1;strokeWidth=2;" vertex="1" parent="1">
          <mxGeometry x="144" y="550" width="250" height="80" as="geometry" />
        </mxCell>
        <mxCell id="uRf5XBfYrNCxBa0gsQwk-45" value="" style="endArrow=classic;html=1;rounded=0;exitX=0;exitY=1;exitDx=0;exitDy=0;entryX=0.5;entryY=0;entryDx=0;entryDy=0;" edge="1" parent="1" source="uRf5XBfYrNCxBa0gsQwk-44" target="uRf5XBfYrNCxBa0gsQwk-33">
          <mxGeometry width="50" height="50" relative="1" as="geometry">
            <mxPoint x="264" y="610" as="sourcePoint" />
            <mxPoint x="134" y="650" as="targetPoint" />
          </mxGeometry>
        </mxCell>
        <mxCell id="uRf5XBfYrNCxBa0gsQwk-46" value="HumanPlayer moves" style="edgeLabel;html=1;align=center;verticalAlign=middle;resizable=0;points=[];" vertex="1" connectable="0" parent="uRf5XBfYrNCxBa0gsQwk-45">
          <mxGeometry x="-0.1567" y="-1" relative="1" as="geometry">
            <mxPoint x="1" as="offset" />
          </mxGeometry>
        </mxCell>
        <mxCell id="uRf5XBfYrNCxBa0gsQwk-48" value="" style="endArrow=classic;html=1;rounded=0;exitX=0.5;exitY=1;exitDx=0;exitDy=0;entryX=0;entryY=0;entryDx=0;entryDy=0;" edge="1" parent="1" source="uRf5XBfYrNCxBa0gsQwk-40" target="uRf5XBfYrNCxBa0gsQwk-44">
          <mxGeometry width="50" height="50" relative="1" as="geometry">
            <mxPoint x="229" y="520" as="sourcePoint" />
            <mxPoint x="94" y="560" as="targetPoint" />
          </mxGeometry>
        </mxCell>
        <mxCell id="uRf5XBfYrNCxBa0gsQwk-50" value="" style="endArrow=classic;html=1;rounded=0;exitX=0.5;exitY=1;exitDx=0;exitDy=0;entryX=1;entryY=0;entryDx=0;entryDy=0;" edge="1" parent="1" source="uRf5XBfYrNCxBa0gsQwk-41" target="uRf5XBfYrNCxBa0gsQwk-44">
          <mxGeometry width="50" height="50" relative="1" as="geometry">
            <mxPoint x="149" y="520" as="sourcePoint" />
            <mxPoint x="279" y="560" as="targetPoint" />
          </mxGeometry>
        </mxCell>
        <mxCell id="uRf5XBfYrNCxBa0gsQwk-60" style="edgeStyle=orthogonalEdgeStyle;rounded=0;orthogonalLoop=1;jettySize=auto;html=1;exitX=0.5;exitY=1;exitDx=0;exitDy=0;entryX=0.5;entryY=0;entryDx=0;entryDy=0;" edge="1" parent="1" source="uRf5XBfYrNCxBa0gsQwk-52" target="uRf5XBfYrNCxBa0gsQwk-56">
          <mxGeometry relative="1" as="geometry" />
        </mxCell>
        <mxCell id="uRf5XBfYrNCxBa0gsQwk-52" value="&lt;font face=&quot;Consolas, Courier New, monospace&quot;&gt;&lt;span style=&quot;font-size: 14px; white-space: pre;&quot;&gt;&lt;b&gt;AIPlayer: Runs ai_move.py&lt;/b&gt;&lt;/span&gt;&lt;/font&gt;&lt;div&gt;&lt;font face=&quot;Consolas, Courier New, monospace&quot;&gt;&lt;span style=&quot;font-size: 14px; white-space: pre;&quot;&gt;&lt;b&gt;script&lt;/b&gt;&lt;/span&gt;&lt;/font&gt;&lt;/div&gt;" style="whiteSpace=wrap;html=1;strokeWidth=2;" vertex="1" parent="1">
          <mxGeometry x="274" y="680" width="250" height="40" as="geometry" />
        </mxCell>
        <mxCell id="uRf5XBfYrNCxBa0gsQwk-53" value="" style="endArrow=classic;html=1;rounded=0;exitX=1;exitY=1;exitDx=0;exitDy=0;entryX=0.5;entryY=0;entryDx=0;entryDy=0;" edge="1" parent="1" source="uRf5XBfYrNCxBa0gsQwk-44" target="uRf5XBfYrNCxBa0gsQwk-52">
          <mxGeometry width="50" height="50" relative="1" as="geometry">
            <mxPoint x="454" y="600" as="sourcePoint" />
            <mxPoint x="324" y="650" as="targetPoint" />
          </mxGeometry>
        </mxCell>
        <mxCell id="uRf5XBfYrNCxBa0gsQwk-54" value="AIPlayer moves" style="edgeLabel;html=1;align=center;verticalAlign=middle;resizable=0;points=[];" vertex="1" connectable="0" parent="uRf5XBfYrNCxBa0gsQwk-53">
          <mxGeometry x="-0.1567" y="-1" relative="1" as="geometry">
            <mxPoint x="1" as="offset" />
          </mxGeometry>
        </mxCell>
        <mxCell id="uRf5XBfYrNCxBa0gsQwk-56" value="&lt;font face=&quot;Consolas, Courier New, monospace&quot;&gt;&lt;span style=&quot;font-size: 14px; white-space: pre;&quot;&gt;&lt;b&gt;Get current board state&lt;/b&gt;&lt;/span&gt;&lt;/font&gt;" style="whiteSpace=wrap;html=1;strokeWidth=2;" vertex="1" parent="1">
          <mxGeometry x="274" y="730" width="250" height="40" as="geometry" />
        </mxCell>
        <mxCell id="uRf5XBfYrNCxBa0gsQwk-62" style="edgeStyle=orthogonalEdgeStyle;rounded=0;orthogonalLoop=1;jettySize=auto;html=1;exitX=0.5;exitY=1;exitDx=0;exitDy=0;entryX=0.5;entryY=0;entryDx=0;entryDy=0;" edge="1" parent="1" source="uRf5XBfYrNCxBa0gsQwk-57" target="uRf5XBfYrNCxBa0gsQwk-58">
          <mxGeometry relative="1" as="geometry" />
        </mxCell>
        <mxCell id="uRf5XBfYrNCxBa0gsQwk-57" value="&lt;font face=&quot;Consolas, Courier New, monospace&quot;&gt;&lt;span style=&quot;font-size: 14px; white-space: pre;&quot;&gt;&lt;b&gt;Calculate avaliable moves&lt;/b&gt;&lt;/span&gt;&lt;/font&gt;" style="whiteSpace=wrap;html=1;strokeWidth=2;" vertex="1" parent="1">
          <mxGeometry x="274" y="780" width="250" height="40" as="geometry" />
        </mxCell>
        <mxCell id="uRf5XBfYrNCxBa0gsQwk-58" value="&lt;font face=&quot;Consolas, Courier New, monospace&quot;&gt;&lt;span style=&quot;font-size: 14px; white-space: pre;&quot;&gt;&lt;b&gt;Run minimax algorithm&lt;/b&gt;&lt;/span&gt;&lt;/font&gt;" style="whiteSpace=wrap;html=1;strokeWidth=2;" vertex="1" parent="1">
          <mxGeometry x="274" y="830" width="250" height="40" as="geometry" />
        </mxCell>
        <mxCell id="uRf5XBfYrNCxBa0gsQwk-59" value="&lt;font face=&quot;Consolas, Courier New, monospace&quot;&gt;&lt;span style=&quot;font-size: 14px; white-space: pre;&quot;&gt;&lt;b&gt;Select best move&lt;/b&gt;&lt;/span&gt;&lt;/font&gt;" style="whiteSpace=wrap;html=1;strokeWidth=2;" vertex="1" parent="1">
          <mxGeometry x="274" y="880" width="250" height="40" as="geometry" />
        </mxCell>
        <mxCell id="uRf5XBfYrNCxBa0gsQwk-61" style="edgeStyle=orthogonalEdgeStyle;rounded=0;orthogonalLoop=1;jettySize=auto;html=1;exitX=0.5;exitY=1;exitDx=0;exitDy=0;entryX=0.5;entryY=0;entryDx=0;entryDy=0;" edge="1" parent="1" source="uRf5XBfYrNCxBa0gsQwk-56" target="uRf5XBfYrNCxBa0gsQwk-57">
          <mxGeometry relative="1" as="geometry" />
        </mxCell>
        <mxCell id="uRf5XBfYrNCxBa0gsQwk-63" style="edgeStyle=orthogonalEdgeStyle;rounded=0;orthogonalLoop=1;jettySize=auto;html=1;exitX=0.5;exitY=1;exitDx=0;exitDy=0;entryX=0.5;entryY=0;entryDx=0;entryDy=0;" edge="1" parent="1" source="uRf5XBfYrNCxBa0gsQwk-58" target="uRf5XBfYrNCxBa0gsQwk-59">
          <mxGeometry relative="1" as="geometry" />
        </mxCell>
        <mxCell id="uRf5XBfYrNCxBa0gsQwk-65" value="" style="endArrow=classic;html=1;rounded=0;exitX=0.5;exitY=1;exitDx=0;exitDy=0;entryX=0;entryY=0;entryDx=0;entryDy=0;" edge="1" parent="1" source="uRf5XBfYrNCxBa0gsQwk-33" target="uRf5XBfYrNCxBa0gsQwk-37">
          <mxGeometry width="50" height="50" relative="1" as="geometry">
            <mxPoint x="154" y="860" as="sourcePoint" />
            <mxPoint x="204" y="810" as="targetPoint" />
          </mxGeometry>
        </mxCell>
        <mxCell id="uRf5XBfYrNCxBa0gsQwk-67" value="" style="endArrow=classic;html=1;rounded=0;exitX=0.5;exitY=1;exitDx=0;exitDy=0;entryX=1;entryY=0;entryDx=0;entryDy=0;" edge="1" parent="1" source="uRf5XBfYrNCxBa0gsQwk-59" target="uRf5XBfYrNCxBa0gsQwk-37">
          <mxGeometry width="50" height="50" relative="1" as="geometry">
            <mxPoint x="149" y="730" as="sourcePoint" />
            <mxPoint x="217" y="990" as="targetPoint" />
          </mxGeometry>
        </mxCell>
        <mxCell id="uRf5XBfYrNCxBa0gsQwk-68" value="" style="endArrow=classic;html=1;rounded=0;exitX=0.5;exitY=1;exitDx=0;exitDy=0;entryX=0.5;entryY=0;entryDx=0;entryDy=0;" edge="1" parent="1" source="uRf5XBfYrNCxBa0gsQwk-14" target="uRf5XBfYrNCxBa0gsQwk-17">
          <mxGeometry width="50" height="50" relative="1" as="geometry">
            <mxPoint x="474" y="410" as="sourcePoint" />
            <mxPoint x="524" y="360" as="targetPoint" />
          </mxGeometry>
        </mxCell>
      </root>
    </mxGraphModel>
  </diagram>
</mxfile>
